<?xml version="1.0"?>
<svg xmlns="http://www.w3.org/2000/svg" xmlns:xlink="http://www.w3.org/1999/xlink" viewBox="0 0 512 512" width="512" height="512"><defs><linearGradient id="linear-gradient" x1="107.246" y1="422.56" x2="404.754" y2="125.053" gradientUnits="userSpaceOnUse"><stop offset="0" stop-color="#41dfd0"/><stop offset="1" stop-color="#ee83ef"/></linearGradient></defs><g id="gradient"><path d="M267.7,151.815a24.761,24.761,0,0,0,40.906-2.931l10.821-18.74a8,8,0,0,0-2.928-10.929L278.505,97.28l6.127-15.319A24.764,24.764,0,0,0,261.64,48H240a8,8,0,0,0-8,8V99.871l-16.33,2.353a24.763,24.763,0,0,0-17.916,36.892l10.819,18.74a8,8,0,0,0,10.929,2.929L257.5,138.849ZM264,112a8,8,0,1,1-8-8A8.009,8.009,0,0,1,264,112Zm30.749,28.884a8.763,8.763,0,0,1-14.476,1.037l-8.993-11.428a24.007,24.007,0,0,0,8.312-14.11l21.977,12.689ZM261.64,64a8.763,8.763,0,0,1,8.136,12.019l-5.4,13.493A23.959,23.959,0,0,0,248,89.376V64Zm-43.209,78.928-6.82-11.812a8.764,8.764,0,0,1,6.34-13.056l14.386-2.073a23.99,23.99,0,0,0,8.083,14.246ZM280,204.963a96,96,0,1,0-48,0V406.7l-13.021,39.06a6.012,6.012,0,0,1-4.515,3.987l-15.955,3.19A28.079,28.079,0,0,0,176,480.4V488a8,8,0,0,0,8,8H328a8,8,0,0,0,8-8v-7.6a28.079,28.079,0,0,0-22.509-27.457l-15.955-3.19a6.013,6.013,0,0,1-4.515-3.986L280,406.7ZM247.59,410.53A8.027,8.027,0,0,0,248,408V328h16v80a8.027,8.027,0,0,0,.41,2.53L268.9,424H243.1ZM176,112a80,80,0,1,1,80,80A80.091,80.091,0,0,1,176,112Zm88,96V312H248V208Zm30.4,257.438,15.956,3.191A12.034,12.034,0,0,1,319.993,480H192.007a12.034,12.034,0,0,1,9.64-11.371l15.956-3.191a22.049,22.049,0,0,0,16.556-14.616L237.767,440h36.466l3.608,10.823A22.05,22.05,0,0,0,294.4,465.438ZM256,184a72.208,72.208,0,0,1-17.993-2.269,8,8,0,1,1,3.986-15.5,56.75,56.75,0,0,0,28.014,0,8,8,0,1,1,3.986,15.5A72.208,72.208,0,0,1,256,184ZM298,74.961a8,8,0,0,1,12-10.588A71.812,71.812,0,0,1,322.763,85a8,8,0,1,1-14.83,6A55.841,55.841,0,0,0,298,74.961ZM196.649,96a8,8,0,0,1-7.413-11A71.842,71.842,0,0,1,202,64.373a8,8,0,0,1,12,10.588A55.852,55.852,0,0,0,204.068,91,8,8,0,0,1,196.649,96Z" style="fill:url(#linear-gradient)"/></g></svg>
