<svg height="415pt" viewBox="-69 0 415 415.69364" width="415pt" xmlns="http://www.w3.org/2000/svg" xmlns:xlink="http://www.w3.org/1999/xlink"><linearGradient id="a" gradientUnits="userSpaceOnUse" x1="19.82634" x2="258.03434" y1="353.749641" y2="115.541641"><stop offset="0" stop-color="#41dfd0"/><stop offset="1" stop-color="#ee83ef"/></linearGradient><path d="m130.027344 415.4375c2.941406.160156 5.910156.257812 8.902344.257812 2.992187 0 5.960937-.097656 8.921874-.257812 47.179688-2.800781 89.53125-29.875 111.878907-71.519531 23.910156-43.242188 23.675781-95.789063-.617188-138.816407l-113.214843-201.328124c-1.535157-2.355469-4.15625-3.773438-6.96875-3.773438-2.808594 0-5.429688 1.417969-6.96875 3.773438l-113.238282 201.328124c-24.289062 43.03125-24.511718 95.582032-.59375 138.816407 22.351563 41.648437 64.710938 68.722656 111.898438 71.519531zm-97.359375-202.496094 106.261719-188.929687 106.273437 188.929687c21.570313 38.222656 21.769531 84.898438.527344 123.304688-19.726563 36.792968-57.125 60.726562-98.800781 63.222656-5.328126.296875-10.671876.296875-16 0-41.667969-2.492188-79.0625-26.414062-98.800782-63.199219-21.246094-38.414062-21.046875-85.101562.539063-123.328125zm36.542969 130.640625c-32.863282-33.632812-36.507813-86.125-8.609376-123.980469 27.894532-37.851562 79.113282-49.914062 120.96875-28.484374l-1.992187-7.0625c-1.054687-4.199219 1.421875-8.472657 5.585937-9.648438 4.164063-1.175781 8.511719 1.175781 9.804688 5.304688l7.832031 27.757812c.074219.25 0 .503906.066407.753906.09375.527344.136718 1.0625.128906 1.597656-.011719.492188-.066406.984376-.167969 1.464844-.113281.503906-.273437 1-.480469 1.472656-.066406.273438-.148437.539063-.25.800782-.164062.21875-.34375.425781-.535156.625-.113281.230468-.238281.460937-.375.679687-.191406.164063-.390625.320313-.601562.460938-.386719.378906-.8125.710937-1.273438.992187-.425781.277344-.875.511719-1.351562.695313-.238282.089843-.429688.273437-.679688.347656l-27.765625 7.839844c-.710937.195312-1.441406.292969-2.175781.292969-4 .007812-7.390625-2.941407-7.9375-6.90625-.546875-3.960938 1.914062-7.71875 5.769531-8.796876l11.503906-3.246093c-34.726562-19.234375-78.300781-10.09375-102.371093 21.46875-24.070313 31.5625-21.359376 76 6.371093 104.402343 3.089844 3.160157 3.039063 8.226563-.121093 11.320313-3.160157 3.09375-8.226563 3.039063-11.320313-.121094zm101.976562 5.695313 6.640625 14.566406c-5.070313 2.320312-10.328125 4.195312-15.722656 5.601562l-4-15.488281c4.488281-1.167969 8.867187-2.730469 13.082031-4.664062zm-26.824219 6.96875 1.285157 15.953125c-5.550782.449219-11.132813.414062-16.679688-.105469l1.480469-15.929688c4.628906.433594 9.28125.457032 13.914062.082032zm49.597657-22.664063 11.242187 11.382813c-3.96875 3.917968-8.277344 7.480468-12.871094 10.640625l-9.066406-13.175781c3.820313-2.636719 7.402344-5.59375 10.710937-8.847657zm23.546874-49.230469 15.917969 1.550782c-.539062 5.539062-1.558593 11.019531-3.046875 16.382812l-15.417968-4.28125c1.25-4.46875 2.105468-9.035156 2.5625-13.652344zm-1.480468 47.941407-13.023438-9.289063c2.699219-3.789062 5.066406-7.804687 7.078125-12l14.398438 6.914063c-2.386719 5.027343-5.210938 9.839843-8.4375 14.375zm-5.210938-88.703125c-1.902344-4.234375-4.175781-8.289063-6.796875-12.121094l13.214844-9.03125c3.144531 4.609375 5.882813 9.484375 8.175781 14.566406zm4.585938 13.121094 15.503906-3.945313c1.375 5.398437 2.28125 10.902344 2.703125 16.457031l-16 1.207032c-.328125-4.628907-1.0625-9.21875-2.191406-13.71875zm-96.199219 120.535156c1.882813 3.992187.175781 8.761718-3.816406 10.648437-1.0625.515625-2.226563.789063-3.410157.800781-3.09375 0-5.914062-1.785156-7.238281-4.585937l-12.304687-26.097656c-1.882813-3.996094-.167969-8.765625 3.832031-10.644531l26.097656-12.289063c2.597657-1.316406 5.707031-1.113281 8.113281.523437 2.410157 1.640626 3.734376 4.460938 3.464844 7.359376-.273437 2.902343-2.101562 5.425781-4.769531 6.589843l-18.847656 8.878907zm0 0" fill="url(#a)"/></svg>