<svg height="496pt" viewBox="-32 0 496 496.13946" width="496pt" xmlns="http://www.w3.org/2000/svg" xmlns:xlink="http://www.w3.org/1999/xlink"><linearGradient id="a" gradientUnits="userSpaceOnUse" x1="-71.57027" x2="379.74173" y1="419.811461" y2="-31.500539"><stop offset="0" stop-color="#003f8a"/><stop offset=".518" stop-color="#00d7df"/><stop offset="1" stop-color="#006df0"/></linearGradient><path d="m426.925781 16.667969c-3.09375-1.175781-6.589843-.328125-8.800781 2.136719-3.070312 3.421874-76.238281 83.023437-173.832031 22.527343-25.726563-15.921875-111.808594-62.96875-181.824219-29.695312-1.425781-2.148438-3.820312-3.457031-6.398438-3.496094h-48c-4.417968 0-7.9999995 3.582031-7.9999995 8v472c0 4.417969 3.5820315 8 7.9999995 8h48c4.417969 0 8-3.582031 8-8v-235.359375c20.527344-10.984375 79.253907-31.152344 171.785157 26.160156 24.191406 15.792969 52.371093 24.394532 81.261719 24.796875 67.023437 0 112.304687-49.597656 112.921874-50.253906 1.3125-1.472656 2.035157-3.375 2.03125-5.34375v-224c0-3.316406-2.046874-6.289063-5.144531-7.472656zm-378.855469 463.472656h-32v-456h32zm368-235.199219c-12.800781 13.03125-81.953124 76.0625-171.792968 20.375-25.519532-15.792968-110.511719-62.273437-180.207032-30.441406v-206.09375c20.527344-10.984375 79.253907-31.152344 171.785157 26.160156 83.167969 51.597656 151.863281 10.277344 180.214843-12.691406zm0 0" fill="url(#a)"/></svg>