<svg height="384pt" viewBox="-36 0 384 384" width="384pt" xmlns="http://www.w3.org/2000/svg" xmlns:xlink="http://www.w3.org/1999/xlink"><linearGradient id="a" gradientUnits="userSpaceOnUse" x1="-51.656" x2="275.656" y1="327.656" y2=".344"><stop offset="0" stop-color="#ee83ef"/><stop offset="1" stop-color="#3bd6d0"/></linearGradient><path d="m304 32h-120v-8c0-13.253906-10.746094-24-24-24h-152c-4.417969 0-8 3.582031-8 8v368c0 4.417969 3.582031 8 8 8h48c4.417969 0 8-3.582031 8-8v-168h64v8c0 13.253906 10.746094 24 24 24h152c4.417969 0 8-3.582031 8-8v-192c0-4.417969-3.582031-8-8-8zm-8 96h-80v-80h80zm-113.601562 76.800781c.28125-.417969.527343-.859375.730468-1.320312.078125-.167969.199219-.3125.269532-.496094.339843-.867187.523437-1.785156.546874-2.710937 0-.097657.054688-.175782.054688-.273438v-56h16v80h-32zm17.601562-156.800781v80h-16v-80zm-32-24v72h-56v-80h48c4.417969 0 8 3.582031 8 8zm-112 168h-40v-80h80v80zm-40-176h80v80h-80zm32 352h-32v-160h32zm64-256h56v80h-56zm32 96h16l-11.390625 15.199219c-.765625-.355469-1.464844-.832031-2.082031-1.40625-.167969-.160157-.304688-.351563-.457032-.527344-.464843-.527344-.859374-1.109375-1.175781-1.738281-.125-.234375-.234375-.480469-.335937-.726563-.355469-.890625-.542969-1.839843-.558594-2.800781zm152 16h-80v-80h80zm0 0" fill="url(#a)"/></svg>