<?xml version="1.0" encoding="iso-8859-1"?>
<!-- Generator: Adobe Illustrator 19.0.0, SVG Export Plug-In . SVG Version: 6.00 Build 0)  -->
<svg version="1.1" id="Capa_1" xmlns="http://www.w3.org/2000/svg" xmlns:xlink="http://www.w3.org/1999/xlink" x="0px" y="0px"
	 viewBox="0 0 440 440" style="enable-background:new 0 0 440 440;" xml:space="preserve">
<g>
	<g>
		<path d="M171.2,36l-16-24c-2.4-4-7.2-4.8-11.2-2.4c-4,2.4-4.8,7.2-2.4,11.2l16,24c2.4,4,7.2,4.8,11.2,2.4
			C172.8,44.8,173.6,40,171.2,36z"/>
	</g>
</g>
<g>
	<g>
		<path d="M220,0c-4.8,0-8,3.2-8,8v24c0,4.8,3.2,8,8,8s8-3.2,8-8V8C228,3.2,224.8,0,220,0z"/>
	</g>
</g>
<g>
	<g>
		<path d="M296,9.6c-4-2.4-8.8-1.6-11.2,2.4l-16,24c-2.4,4-1.6,8.8,2.4,11.2c1.6,0,3.2,0.8,4.8,0.8c2.4,0,4.8-1.6,6.4-3.2l16-24
			C300.8,16.8,300,12,296,9.6z"/>
	</g>
</g>
<g>
	<g>
		<path d="M244,64h-48c-40,0-72,32-72,72v176c0,4.8,3.2,8,8,8h32v72c0,22.4,17.6,40,40,40c0,4.8,3.2,8,8,8h16c4.8,0,8-3.2,8-8
			c22.4,0,40-17.6,40-40v-72h32c4.8,0,8-3.2,8-8V136C316,96,284,64,244,64z M260,392c0,13.6-10.4,24-24,24h-32
			c-13.6,0-24-10.4-24-24v-72h80V392z M300,304H140V136c0-31.2,24.8-56,56-56h48c31.2,0,56,24.8,56,56V304z"/>
	</g>
</g>
<g>
	<g>
		<path d="M248.8,256.8c-0.8,0-1.6-0.8-1.6-0.8l-36-12l31.2-31.2c3.2-3.2,3.2-8,0-11.2s-8-3.2-11.2,0l-40,40c-3.2,3.2-3.2,8,0,11.2
			c0,1.6,0.8,2.4,2.4,2.4L232,268l-10.4,15.2c-2.4,4-1.6,8.8,2.4,11.2c4,2.4,8.8,1.6,11.2-2.4l16-24
			C253.6,264,252.8,259.2,248.8,256.8z"/>
	</g>
</g>
<g>
	<g>
		<path d="M236,344h-32c-4.8,0-8,3.2-8,8s3.2,8,8,8h32c4.8,0,8-3.2,8-8S240.8,344,236,344z"/>
	</g>
</g>
<g>
	<g>
		<path d="M236,384h-32c-4.8,0-8,3.2-8,8s3.2,8,8,8h32c4.8,0,8-3.2,8-8S240.8,384,236,384z"/>
	</g>
</g>
<g>
</g>
<g>
</g>
<g>
</g>
<g>
</g>
<g>
</g>
<g>
</g>
<g>
</g>
<g>
</g>
<g>
</g>
<g>
</g>
<g>
</g>
<g>
</g>
<g>
</g>
<g>
</g>
<g>
</g>
</svg>
