<?xml version="1.0" encoding="iso-8859-1"?>
<!-- Generator: Adobe Illustrator 19.0.0, SVG Export Plug-In . SVG Version: 6.00 Build 0)  -->
<svg version="1.1" id="Capa_1" xmlns="http://www.w3.org/2000/svg" xmlns:xlink="http://www.w3.org/1999/xlink" x="0px" y="0px"
	 viewBox="0 0 440 440" style="enable-background:new 0 0 440 440;" xml:space="preserve">
<linearGradient id="SVGID_1_" gradientUnits="userSpaceOnUse" x1="-55.7843" y1="586.1172" x2="-53.8673" y2="588.0312" gradientTransform="matrix(8 0 0 -8 595 4725)">
	<stop  offset="0" style="stop-color:#FF5F6D"/>
	<stop  offset="1" style="stop-color:#FFC371"/>
</linearGradient>
<path style="fill:url(#SVGID_1_);" d="M157.6,44.8c2.4,4,7.2,4.8,11.2,2.4s4.8-7.2,2.4-11.2l-16-24c-2.4-4-7.2-4.8-11.2-2.4
	c-4,2.4-4.8,7.2-2.4,11.2L157.6,44.8z"/>
<linearGradient id="SVGID_2_" gradientUnits="userSpaceOnUse" x1="-48.3312" y1="586.6672" x2="-45.4172" y2="589.5842" gradientTransform="matrix(8 0 0 -8 595 4725)">
	<stop  offset="0" style="stop-color:#FF5F6D"/>
	<stop  offset="1" style="stop-color:#FFC371"/>
</linearGradient>
<path style="fill:url(#SVGID_2_);" d="M220,40c4.8,0,8-3.2,8-8V8c0-4.8-3.2-8-8-8s-8,3.2-8,8v24C212,36.8,215.2,40,220,40z"/>
<linearGradient id="SVGID_3_" gradientUnits="userSpaceOnUse" x1="-40.8455" y1="585.1785" x2="-36.9275" y2="589.0925" gradientTransform="matrix(8 0 0 -8 595 4725)">
	<stop  offset="0" style="stop-color:#FF5F6D"/>
	<stop  offset="1" style="stop-color:#FFC371"/>
</linearGradient>
<path style="fill:url(#SVGID_3_);" d="M276,48c2.4,0,4.8-1.6,6.4-3.2l16-24c2.4-4,1.6-8.8-2.4-11.2S287.2,8,284.8,12l-16,24
	c-2.4,4-1.6,8.8,2.4,11.2C272.8,47.2,274.4,48,276,48z"/>
<linearGradient id="SVGID_4_" gradientUnits="userSpaceOnUse" x1="-61.0877" y1="546.7386" x2="-32.6907" y2="575.1326" gradientTransform="matrix(8 0 0 -8 595 4725)">
	<stop  offset="0" style="stop-color:#FF5F6D"/>
	<stop  offset="1" style="stop-color:#FFC371"/>
</linearGradient>
<path style="fill:url(#SVGID_4_);" d="M132,320h32v72c0,22.4,17.6,40,40,40c0,4.8,3.2,8,8,8h16c4.8,0,8-3.2,8-8
	c22.4,0,40-17.6,40-40v-72h32c4.8,0,8-3.2,8-8V136c0-40-32-72-72-72h-48c-40,0-72,32-72,72v176C124,316.8,127.2,320,132,320z
	 M260,392c0,13.6-10.4,24-24,24h-32c-13.6,0-24-10.4-24-24v-72h80V392z M140,136c0-31.2,24.8-56,56-56h48c31.2,0,56,24.8,56,56v168
	H140V136z"/>
<linearGradient id="SVGID_5_" gradientUnits="userSpaceOnUse" x1="-48.8242" y1="556.1552" x2="-41.9062" y2="563.0703" gradientTransform="matrix(8 0 0 -8 595 4725)">
	<stop  offset="0" style="stop-color:#FF5F6D"/>
	<stop  offset="1" style="stop-color:#FFC371"/>
</linearGradient>
<path style="fill:url(#SVGID_5_);" d="M193.6,255.2L232,268l-10.4,15.2c-2.4,4-1.6,8.8,2.4,11.2c4,2.4,8.8,1.6,11.2-2.4l16-24
	c2.4-4,1.6-8.8-2.4-11.2c-0.8,0-1.6-0.8-1.6-0.8l-36-12l31.2-31.2c3.2-3.2,3.2-8,0-11.2s-8-3.2-11.2,0l-40,40c-3.2,3.2-3.2,8,0,11.2
	C191.2,254.4,192,255.2,193.6,255.2L193.6,255.2z"/>
<linearGradient id="SVGID_6_" gradientUnits="userSpaceOnUse" x1="-48.5835" y1="544.9165" x2="-45.1665" y2="548.3335" gradientTransform="matrix(8 0 0 -8 595 4725)">
	<stop  offset="0" style="stop-color:#FF5F6D"/>
	<stop  offset="1" style="stop-color:#FFC371"/>
</linearGradient>
<path style="fill:url(#SVGID_6_);" d="M204,360h32c4.8,0,8-3.2,8-8s-3.2-8-8-8h-32c-4.8,0-8,3.2-8,8S199.2,360,204,360z"/>
<linearGradient id="SVGID_7_" gradientUnits="userSpaceOnUse" x1="-48.5835" y1="539.9165" x2="-45.1665" y2="543.3335" gradientTransform="matrix(8 0 0 -8 595 4725)">
	<stop  offset="0" style="stop-color:#FF5F6D"/>
	<stop  offset="1" style="stop-color:#FFC371"/>
</linearGradient>
<path style="fill:url(#SVGID_7_);" d="M204,400h32c4.8,0,8-3.2,8-8s-3.2-8-8-8h-32c-4.8,0-8,3.2-8,8S199.2,400,204,400z"/>
<g>
</g>
<g>
</g>
<g>
</g>
<g>
</g>
<g>
</g>
<g>
</g>
<g>
</g>
<g>
</g>
<g>
</g>
<g>
</g>
<g>
</g>
<g>
</g>
<g>
</g>
<g>
</g>
<g>
</g>
</svg>
