<?xml version="1.0" encoding="iso-8859-1"?>
<!-- Generator: Adobe Illustrator 19.0.0, SVG Export Plug-In . SVG Version: 6.00 Build 0)  -->
<svg version="1.1" id="Capa_1" xmlns="http://www.w3.org/2000/svg" xmlns:xlink="http://www.w3.org/1999/xlink" x="0px" y="0px"
	 viewBox="0 0 440 440" style="enable-background:new 0 0 440 440;" xml:space="preserve">
<g>
	<path style="fill:#FEC380;" d="M164,48c-2.4,0-4.8-1.6-6.4-3.2l-16-24c-2.4-4-1.6-8.8,2.4-11.2s8.8-1.6,11.2,2.4l16,24
		c2.4,4,1.6,8.8-2.4,11.2C167.2,47.2,165.6,48,164,48z"/>
	<path style="fill:#FEC380;" d="M220,40c-4.8,0-8-3.2-8-8V8c0-4.8,3.2-8,8-8c4.8,0,8,3.2,8,8v24C228,36.8,224.8,40,220,40z"/>
	<path style="fill:#FEC380;" d="M276,48c-4.8,0-8-3.2-8-8c0-1.6,0.8-3.2,1.6-4.8l16-24c2.4-4,7.2-4.8,11.2-2.4
		c4,2.4,4.8,7.2,2.4,11.2l-16,24C280.8,46.4,278.4,48,276,48z"/>
</g>
<path style="fill:#FD9B2C;" d="M196,72h48c35.2,0,64,28.8,64,64v168c0,4.8-3.2,8-8,8H140c-4.8,0-8-3.2-8-8V136
	C132,100.8,160.8,72,196,72z"/>
<path style="fill:#9DE0DD;" d="M172,312h96l0,0v80c0,17.6-14.4,32-32,32h-32c-17.6,0-32-14.4-32-32V312L172,312z"/>
<path style="fill:#76A8A6;" d="M228,440h-16c-4.8,0-8-3.2-8-8s3.2-8,8-8h16c4.8,0,8,3.2,8,8S232.8,440,228,440z"/>
<path style="fill:#FEC380;" d="M228,296c-4.8,0-8-3.2-8-8c0-1.6,0.8-3.2,1.6-4.8L232,268l-38.4-12.8c-4-1.6-6.4-5.6-4.8-10.4
	c0-0.8,0.8-2.4,1.6-3.2l40-40c3.2-3.2,8-3.2,11.2,0s3.2,8,0,11.2L210.4,244l36,12c4,1.6,6.4,5.6,4.8,10.4c0,0.8-0.8,1.6-0.8,1.6
	l-16,24C232.8,294.4,230.4,296,228,296z"/>
<g>
	<path style="fill:#76A8A6;" d="M236,360h-32c-4.8,0-8-3.2-8-8s3.2-8,8-8h32c4.8,0,8,3.2,8,8S240.8,360,236,360z"/>
	<path style="fill:#76A8A6;" d="M236,400h-32c-4.8,0-8-3.2-8-8s3.2-8,8-8h32c4.8,0,8,3.2,8,8S240.8,400,236,400z"/>
</g>
<g>
</g>
<g>
</g>
<g>
</g>
<g>
</g>
<g>
</g>
<g>
</g>
<g>
</g>
<g>
</g>
<g>
</g>
<g>
</g>
<g>
</g>
<g>
</g>
<g>
</g>
<g>
</g>
<g>
</g>
</svg>
