<svg height="496pt" viewBox="0 0 496 496.00305" width="496pt" xmlns="http://www.w3.org/2000/svg" xmlns:xlink="http://www.w3.org/1999/xlink"><linearGradient id="a" gradientUnits="userSpaceOnUse" x1="16.233525" x2="387.977525" y1="428.417913" y2="56.665913"><stop offset="0" stop-color="#003f8a"/><stop offset=".518" stop-color="#00d7df"/><stop offset="1" stop-color="#006df0"/></linearGradient><path d="m493.25 161.960938-184-160c-2.367188-2.054688-5.714844-2.539063-8.566406-1.238282-2.851563 1.296875-4.683594 4.144532-4.683594 7.277344v64.265625c-30.722656.957031-61.375 3.613281-91.804688 7.953125-41.753906 8.773438-80.871093 27.203125-114.21875 53.816406-56.210937 44.203125-89.308593 111.539063-89.976562 183.046875.609375 68.203125 30.808594 132.777344 82.761719 176.96875 2.503906 2.167969 6.085937 2.570313 9.007812 1.007813s4.578125-4.761719 4.167969-8.046875c-.992188-8.375-1.464844-16.800781-1.40625-25.234375-.222656-27.894532 5.746094-55.488282 17.46875-80.800782 20.109375-40.351562 52.234375-73.480468 91.953125-94.824218 28.292969-15.105469 59.980469-22.730469 92.046875-22.152344v64c0 3.136719 1.832031 5.984375 4.683594 7.28125 2.851562 1.300781 6.199218.816406 8.566406-1.238281l184-160c1.75-1.519531 2.753906-3.722657 2.753906-6.042969 0-2.316406-1.003906-4.519531-2.753906-6.039062zm-181.25 148.488281v-54.449219c0-4.386719-3.53125-7.953125-7.917969-8-43.382812-.261719-77.679687 7.273438-107.9375 24.179688-42.621093 22.988281-77.074219 58.621093-98.605469 102-12.730468 27.433593-19.222656 57.351562-19.007812 87.597656 0 2.183594.023438 4.316406.070312 6.402344-40.03125-40.101563-62.542968-94.433594-62.601562-151.097657.679688-66.664062 31.578125-129.417969 84-170.609375 31.402344-25.027344 68.222656-42.359375 107.523438-50.613281 32.058593-4.355469 64.328124-6.976563 96.671874-7.859375 4.339844-.101562 7.808594-3.652344 7.804688-8v-54.445312l163.808594 142.445312zm0 0" fill="url(#a)"/></svg>