<svg height="512" viewBox="0 0 512 512" width="512" xmlns="http://www.w3.org/2000/svg" xmlns:xlink="http://www.w3.org/1999/xlink"><linearGradient id="linear-gradient" gradientUnits="userSpaceOnUse" x1="105.321" x2="406.679" y1="424.723" y2="123.365"><stop offset="0" stop-color="#41dfd0"/><stop offset="1" stop-color="#ee83ef"/></linearGradient><g id="gradient"><path d="m256 256a32 32 0 1 0 -32-32 32.036 32.036 0 0 0 32 32zm0-48a16 16 0 1 1 -16 16 16.019 16.019 0 0 1 16-16zm0 288c105.869 0 192-86.131 192-192a191.065 191.065 0 0 0 -42.239-120h18.239a8 8 0 0 0 0-16h-20.687l18.344-18.343a8 8 0 0 0 -11.314-11.314l-18.343 18.344v-20.687a8 8 0 0 0 -16 0v18.239a191.578 191.578 0 0 0 -240 0v-18.239a8 8 0 0 0 -16 0v20.687l-18.343-18.344a8 8 0 0 0 -11.314 11.314l18.344 18.343h-20.687a8 8 0 0 0 0 16h18.239a191.065 191.065 0 0 0 -42.239 120c0 105.869 86.131 192 192 192zm0-16c-94.365 0-171.613-74.653-175.81-168h17.015c4.182 83.97 73.809 151 158.8 151s154.617-67.029 158.8-151h17.007c-4.199 93.347-81.447 168-175.812 168zm-143-176c0-78.85 64.149-143 143-143s143 64.15 143 143-64.15 143-143 143-143-64.153-143-143zm318.806-8h-17.006c-4.181-83.971-73.809-151-158.8-151s-154.618 67.03-158.8 151h-17.01c4.2-93.347 81.445-168 175.81-168s171.612 74.652 175.81 168zm-175.806-24a8 8 0 1 1 -8 8 8 8 0 0 1 8-8zm-40 8a8 8 0 1 1 8 8 8 8 0 0 1 -8-8zm72-8a8 8 0 1 1 -8 8 8 8 0 0 1 8-8zm-48 128h32a24 24 0 0 0 0-48h-32a24 24 0 0 0 0 48zm-8-24a8 8 0 1 1 8 8 8.009 8.009 0 0 1 -8-8zm48 0a8.009 8.009 0 0 1 -8 8h-9.376a23.944 23.944 0 0 0 0-16h9.376a8.009 8.009 0 0 1 8 8zm-24-312a40.1 40.1 0 0 0 -29.6 13.1 8 8 0 0 1 -11.836-10.766 55.992 55.992 0 0 1 83.166.335 8 8 0 0 1 -11.92 10.667 40.063 40.063 0 0 0 -29.81-13.336zm-64.579-7.9a8 8 0 0 1 -.534-11.3 87.989 87.989 0 0 1 132.713 2.866 8 8 0 0 1 -12.286 10.249 71.988 71.988 0 0 0 -108.591-2.345 8 8 0 0 1 -11.302.53zm83.011 32.53a8 8 0 0 1 -12.286 10.25 7.968 7.968 0 0 0 -12.054-.251 8 8 0 0 1 -11.836-10.767 23.97 23.97 0 0 1 36.176.768z" fill="url(#linear-gradient)"/></g></svg>