<?xml version="1.0"?>
<svg xmlns="http://www.w3.org/2000/svg" xmlns:xlink="http://www.w3.org/1999/xlink" viewBox="0 0 512 512" width="512" height="512"><defs><linearGradient id="linear-gradient" x1="40.343" y1="475.657" x2="471.657" y2="44.343" gradientUnits="userSpaceOnUse"><stop offset="0" stop-color="#41dfd0"/><stop offset="1" stop-color="#ee83ef"/></linearGradient></defs><g id="gradient"><path d="M464,312V104a8,8,0,0,0-8-8H56a8,8,0,0,0-8,8V312a8,8,0,0,0,8,8H456A8,8,0,0,0,464,312Zm-16-8H64V112H448ZM200,256H312a8,8,0,0,0,8-8V226.246l22.06,5.515A8,8,0,0,0,352,224V176a8,8,0,0,0-9.94-7.761L320,173.754V152a8,8,0,0,0-8-8H200a8,8,0,0,0-8,8v96A8,8,0,0,0,200,256Zm136-69.754v27.508l-16-4V190.246ZM208,160h96v80H208Zm67.578,32.845-32-16A8,8,0,0,0,232,184v32a8,8,0,0,0,11.578,7.155l32-16a8,8,0,0,0,0-14.31ZM248,203.056v-6.112L254.111,200ZM232,280a8,8,0,1,1-8-8A8,8,0,0,1,232,280Zm33.8,0a10,10,0,1,1-10-10A10,10,0,0,1,265.8,280Zm30.8,0a8,8,0,1,1-8-8A8,8,0,0,1,296.592,280ZM24,456H56a8,8,0,0,0,8-8V424H448v24a8,8,0,0,0,8,8h32a8,8,0,0,0,8-8V384a8,8,0,0,0-8-8H469.416l-9.6-24H488a8,8,0,0,0,8-8V72a8,8,0,0,0-8-8H24a8,8,0,0,0-8,8V344a8,8,0,0,0,8,8H60.184l-9.6,24H24a8,8,0,0,0-8,8v64A8,8,0,0,0,24,456Zm428.184-80H437.416l-9.6-24h14.768Zm-294.768,0-9.6-24H372.184l-9.6,24Zm-41.6-24h14.768l9.6,24H125.416Zm-7.632,24H99.816L104,365.541Zm281.232-24h14.768l-9.6,24H379.816ZM416,365.541,420.184,376h-8.368ZM32,80H480V336H32ZM77.416,352H92.184l-9.6,24H67.816ZM32,392H480v48H464V416a8,8,0,0,0-8-8H56a8,8,0,0,0-8,8v24H32Z" style="fill:url(#linear-gradient)"/></g></svg>
