<?xml version="1.0"?>
<svg xmlns="http://www.w3.org/2000/svg" xmlns:xlink="http://www.w3.org/1999/xlink" width="512" height="512" viewBox="0 0 512 512"><defs><linearGradient id="a" data-name="New Gradient Swatch 1" x1="2.124" y1="505.876" x2="484.02" y2="23.98" gradientUnits="userSpaceOnUse"><stop offset="0" stop-color="#003f8a"/><stop offset="0.518" stop-color="#00d7df"/><stop offset="1" stop-color="#006df0"/></linearGradient><linearGradient id="b" x1="68.124" y1="571.876" x2="550.02" y2="89.98" xlink:href="#a"/><linearGradient id="c" x1="64.124" y1="567.876" x2="546.02" y2="85.98" xlink:href="#a"/><linearGradient id="d" x1="-43.876" y1="459.876" x2="438.02" y2="-22.021" xlink:href="#a"/><linearGradient id="e" x1="-39.876" y1="463.876" x2="442.02" y2="-18.02" xlink:href="#a"/><linearGradient id="f" x1="-63.876" y1="439.876" x2="418.021" y2="-42.02" xlink:href="#a"/><linearGradient id="g" x1="-15.876" y1="487.876" x2="466.02" y2="5.98" xlink:href="#a"/></defs><g><path d="M488,312H456V296h24a8,8,0,0,0,8-8V32a8,8,0,0,0-8-8H32a8,8,0,0,0-8,8V288a8,8,0,0,0,8,8H56v16H24A16.021,16.021,0,0,0,8,328V440a16.021,16.021,0,0,0,16,16h8v24a8,8,0,0,0,8,8H64a8,8,0,0,0,7.76-6.06L78.25,456h355.5l6.49,25.94A8,8,0,0,0,448,488h24a8,8,0,0,0,8-8V456h8a16.021,16.021,0,0,0,16-16V328A16.021,16.021,0,0,0,488,312ZM40,280V40H472V280Zm400,16v16H72V296ZM57.75,472H48V456H61.75ZM464,472h-9.75l-4-16H464Zm24-32H24V328H488l.01,112Z" fill="url(#a)"/><path d="M472,336H40a8,8,0,0,0-8,8v80a8,8,0,0,0,8,8H472a8,8,0,0,0,8-8V344A8,8,0,0,0,472,336Zm-8,80H48V352H464Z" fill="url(#b)"/><path d="M224,384h64a8,8,0,0,0,0-16H224a8,8,0,0,0,0,16Z" fill="url(#c)"/><path d="M464,264V56a8,8,0,0,0-8-8H56a8,8,0,0,0-8,8V264a8,8,0,0,0,8,8H456A8,8,0,0,0,464,264Zm-16-8H64V64H448Z" fill="url(#d)"/><path d="M216,216a7.976,7.976,0,0,0,5.657-2.343l80-80a8,8,0,1,0-11.314-11.314l-80,80A8,8,0,0,0,216,216Z" fill="url(#e)"/><path d="M216,168a7.976,7.976,0,0,0,5.657-2.343l32-32a8,8,0,1,0-11.314-11.314l-32,32A8,8,0,0,0,216,168Z" fill="url(#f)"/><path d="M294.343,166.343l-40,40a8,8,0,0,0,11.314,11.314l40-40a8,8,0,0,0-11.314-11.314Z" fill="url(#g)"/></g></svg>
