<?xml version="1.0"?>
<svg xmlns="http://www.w3.org/2000/svg" xmlns:xlink="http://www.w3.org/1999/xlink" viewBox="0 0 512 512" width="512" height="512"><defs><linearGradient id="linear-gradient" x1="98.832" y1="396.19" x2="432.249" y2="62.773" gradientUnits="userSpaceOnUse"><stop offset="0" stop-color="#41dfd0"/><stop offset="1" stop-color="#ee83ef"/></linearGradient></defs><g id="gradient"><path d="M348.76,16.4h-.015L168.018,16H168a8,8,0,0,0-8,8V88a8,8,0,0,0,8,8h8v40a8,8,0,0,0,8,8v12.5a89.8,89.8,0,0,1-29.683,66.648A152.223,152.223,0,0,0,104,336.132v2.286a152,152,0,0,0,304,0v-2.286a152.223,152.223,0,0,0-50.317-112.981,89.869,89.869,0,0,1-19.3-24.779q4.479.444,9.074.45A91.666,91.666,0,0,0,412.646,43.178,88.715,88.715,0,0,0,348.76,16.4ZM176,32.018l120.865.269a94.539,94.539,0,0,0-13.21,10.771A90.991,90.991,0,0,0,260.6,80H176ZM306.27,288.6l30.91,34.772A17.2,17.2,0,0,1,324.323,352H312a8,8,0,0,0-7.155,4.422L292.8,380.512a6.31,6.31,0,0,1-11.289-5.641L292.8,352.283a22.311,22.311,0,0,0-39.909-19.958l-24.1,48.189a6.309,6.309,0,0,1-11.287-5.64l11.293-22.59a22.311,22.311,0,0,0-39.914-19.951l-9.412,18.824a12.47,12.47,0,0,1-7.6-8.62,24.153,24.153,0,0,1,5.382-21.917L205.731,288.6A103.9,103.9,0,0,0,232,219.5V144h31.826a91.47,91.47,0,0,0,16.6,25.4L280,219.5A103.9,103.9,0,0,0,306.27,288.6ZM257,96a90.222,90.222,0,0,0-.752,11.612,91.163,91.163,0,0,0,2.3,20.388H238.948l7.708-11.562a8,8,0,1,0-13.312-8.876L219.719,128H206.948l7.708-11.562a8,8,0,1,0-13.312-8.876L192,121.578V96Zm89.983,139.044A136.2,136.2,0,0,1,392,336.132v2.286a136,136,0,0,1-272,0v-2.286a136.2,136.2,0,0,1,45.021-101.088A105.824,105.824,0,0,0,200,156.5V144h16v75.5a87.913,87.913,0,0,1-22.228,58.464L165.305,309.99a40.145,40.145,0,0,0-8.947,36.427A28.451,28.451,0,0,0,184,368a8,8,0,0,0,7.155-4.422l12.046-24.09a6.312,6.312,0,0,1,11.292,5.642L203.2,367.72a22.308,22.308,0,0,0,39.908,19.95l24.1-48.19a6.31,6.31,0,0,1,11.286,5.649L267.2,367.716a22.31,22.31,0,0,0,39.911,19.952L316.944,368h7.379a33.2,33.2,0,0,0,24.815-55.262l-30.91-34.772A87.875,87.875,0,0,1,296,219.569l.311-36.472a90.957,90.957,0,0,0,22.679,11.172A105.917,105.917,0,0,0,346.979,235.044Zm.476-52.222a75.3,75.3,0,0,1-75.211-75.21A73.935,73.935,0,0,1,294.85,54.489,76.628,76.628,0,0,1,348.727,32.4,72.837,72.837,0,0,1,401.212,54.37a75.666,75.666,0,0,1-53.757,128.452Zm41.926-64.546a8,8,0,0,1-11.922,10.672,39.992,39.992,0,0,0-59.409-.241,8,8,0,0,1-11.836-10.766,55.993,55.993,0,0,1,83.167.335ZM348.922,67.612c25.734,0,49.288,11.245,66.323,31.665a8,8,0,0,1-12.286,10.25c-13.941-16.712-33.132-25.915-54.037-25.915-20.733,0-41.125,8.812-54.549,23.57a8,8,0,0,1-11.836-10.766C298.942,78.38,323.759,67.612,348.922,67.612Zm17.16,72.636A8,8,0,1,1,353.8,150.5a7.986,7.986,0,0,0-6.146-2.884,7.9,7.9,0,0,0-5.907,2.633,8,8,0,0,1-11.836-10.766,23.967,23.967,0,0,1,36.176.769Zm-14.61,271.914c-2.128,2.836-4.409,5.6-6.779,8.226a8,8,0,1,1-11.869-10.729c2.044-2.262,4.012-4.65,5.848-7.1a8,8,0,0,1,12.8,9.6Zm-25.2,15.026a8,8,0,0,1-2.063,11.124,116.856,116.856,0,0,1-19.746,10.917l-6.363,2.752a8,8,0,1,1-6.351-14.685l6.363-2.752a100.672,100.672,0,0,0,17.036-9.42A8,8,0,0,1,326.276,427.188Z" style="fill:url(#linear-gradient)"/></g></svg>
